<svg xmlns="http://www.w3.org/2000/svg" width="16" height="16" fill="none" viewBox="0 0 16 16"><g fill="#212121" clip-path="url(#clip0_265_63)"><path d="M11.281 12.375a.625.625 0 0 0-.625.625v1.75H1.72V1.25h8.937V3a.625.625 0 0 0 1.25 0V.625A.625.625 0 0 0 11.281 0H1.094a.625.625 0 0 0-.625.625v14.75c0 .345.28.625.625.625H11.28c.345 0 .625-.28.625-.625V13a.625.625 0 0 0-.625-.625"/><path d="m15.348 7.558-1.68-1.68a.625.625 0 1 0-.883.885l.612.612H8.22a.625.625 0 0 0 0 1.25h5.177l-.612.612a.625.625 0 1 0 .884.884l1.68-1.68A.62.62 0 0 0 15.53 8a.63.63 0 0 0-.183-.442"/></g><defs><clipPath id="clip0_265_63"><path fill="#fff" d="M0 0h16v16H0z"/></clipPath></defs></svg>