<svg xmlns="http://www.w3.org/2000/svg" width="40" height="40" fill="none" viewBox="0 0 40 40"><path fill="#14b0f2" d="M27.083 34.167h-5.666v-4.25h-2.834v4.25h-5.666v-4.25h-2.834v5.666A1.416 1.416 0 0 0 11.5 37h17a1.417 1.417 0 0 0 1.417-1.417v-5.666h-2.834z"/><path fill="#14b0f2" stroke="#14b0f2" d="M20.038 3.5a.92.92 0 0 1 .832.627l2.314 6.943.183.55.517-.262 2.595-1.312a.916.916 0 0 1 1.12.233c.864 1.046 1.678 2.531 2.275 4.068.598 1.542.96 3.084.96 4.237 0 2.901-1.127 5.316-3.25 7.018C25.677 27.135 22.988 28 20 28s-5.676-.865-7.585-2.398c-2.122-1.702-3.248-4.117-3.248-7.018 0-.896.23-2.2.638-3.529.41-1.328.982-2.63 1.636-3.538a.92.92 0 0 1 1.238-.236l2.158 1.38.497.318.231-.542 3.592-8.382a.92.92 0 0 1 .88-.554Zm-.429 14.132c-.761.951-1.483 1.967-2.019 2.867-.267.449-.492.878-.653 1.26-.155.37-.27.747-.27 1.075a3.333 3.333 0 0 0 6.667 0c0-.328-.116-.704-.27-1.075a11 11 0 0 0-.654-1.26c-.535-.9-1.259-1.916-2.02-2.867l-.39-.489zm-.234-9.43-2.782 6.492a.92.92 0 0 1-.966.548.9.9 0 0 1-.37-.137h-.001l-2.313-1.48-.482-.308-.242.52c-.708 1.526-1.22 3.552-1.22 4.747 0 2.916 1.352 4.881 3.243 6.073l1.061.669-.31-1.216a5.2 5.2 0 0 1-.16-1.276c0-.583.207-1.3.567-2.087.357-.78.845-1.593 1.364-2.358a33 33 0 0 1 2.554-3.251.917.917 0 0 1 1.364 0 33 33 0 0 1 2.553 3.251c.52.765 1.008 1.578 1.364 2.358.36.788.568 1.504.568 2.087 0 .43-.054.859-.16 1.276l-.31 1.216 1.06-.669C27.65 23.465 29 21.501 29 18.584c0-.78-.233-1.846-.603-2.934-.373-1.097-.901-2.262-1.522-3.244l-.244-.384-.405.205-2.98 1.508a.92.92 0 0 1-1.282-.528l-1.656-4.965-.416-1.248z"/></svg>