<svg width="40" height="40" viewBox="0 0 40 40" fill="none" xmlns="http://www.w3.org/2000/svg">
<g clip-path="url(#clip0_8231_2)">
<path d="M13.8 0.8975C13.8762 0.638322 14.0343 0.410797 14.2506 0.249C14.4669 0.087203 14.7299 -0.000157966 15 2.14429e-07H25C25.198 0.000150484 25.3931 0.047315 25.5692 0.137611C25.7454 0.227907 25.8976 0.358752 26.0133 0.519375C26.129 0.679998 26.2049 0.865806 26.2348 1.0615C26.2646 1.2572 26.2476 1.45718 26.185 1.645L21.735 15H31.25C31.4841 14.9998 31.7135 15.0654 31.9122 15.1892C32.1108 15.3131 32.2707 15.4902 32.3736 15.7005C32.4765 15.9107 32.5183 16.1456 32.4942 16.3785C32.4702 16.6113 32.3812 16.8327 32.2375 17.0175L14.7375 39.5175C14.5582 39.7491 14.3033 39.9104 14.0173 39.9733C13.7312 40.0361 13.4321 39.9965 13.1723 39.8614C12.9124 39.7262 12.7083 39.5042 12.5955 39.2339C12.4827 38.9636 12.4683 38.6623 12.555 38.3825L17.0575 23.75H8.75C8.55566 23.7501 8.36397 23.7049 8.19016 23.618C8.01634 23.5311 7.86519 23.4048 7.74871 23.2493C7.63222 23.0937 7.55361 22.9131 7.51911 22.7219C7.48462 22.5306 7.4952 22.334 7.55 22.1475L13.8 0.8975ZM15.935 2.5L10.42 21.25H18.75C18.9456 21.25 19.1385 21.2958 19.3132 21.3839C19.4878 21.472 19.6394 21.5999 19.7556 21.7572C19.8719 21.9146 19.9496 22.097 19.9824 22.2898C20.0153 22.4827 20.0025 22.6805 19.945 22.8675L16.95 32.6L28.695 17.5H20C19.802 17.4998 19.6069 17.4527 19.4308 17.3624C19.2546 17.2721 19.1024 17.1412 18.9867 16.9806C18.871 16.82 18.7951 16.6342 18.7652 16.4385C18.7354 16.2428 18.7524 16.0428 18.815 15.855L23.265 2.5H15.935Z" fill="#FFCB15"/>
</g>
<defs>
<clipPath id="clip0_8231_2">
<rect width="40" height="40" fill="white"/>
</clipPath>
</defs>
</svg>
